<?xml version="1.0" encoding="utf-8"?>
<!-- Uploaded to: SVG Repo, www.svgrepo.com, Generator: SVG Repo Mixer Tools -->
<svg fill="#000000" version="1.1" id="Layer_1" xmlns="http://www.w3.org/2000/svg" xmlns:xlink="http://www.w3.org/1999/xlink" 
	 width="800px" height="800px" viewBox="0 0 256 241" enable-background="new 0 0 256 241" xml:space="preserve">
<path d="M254,188V2H2v186h111v29H75v22h106v-22h-38v-29H254z M19,19h217v151H19L19,19z M178.625,124.825l-30.772-30.882
	l30.772-30.772V124.825z M82.559,130.671l30.772-30.772l1.324,1.213c7.279,6.949,18.86,6.949,25.809,0l1.324-1.324l30.993,30.772
	H82.559V130.671z M77.044,63.171l30.662,30.772l-30.772,30.882L77.044,63.171z M172.779,57.325l-37.831,37.831
	c-3.86,3.86-10.699,3.75-14.669-0.11L82.559,57.325H172.779z M68.662,138.943h118.676v-90H68.662V138.943z"/>
</svg>