<?xml version="1.0" encoding="iso-8859-1"?>
<!-- Uploaded to: SVG Repo, www.svgrepo.com, Generator: SVG Repo Mixer Tools -->
<svg fill="#000000" height="800px" width="800px" version="1.1" id="Layer_1" xmlns="http://www.w3.org/2000/svg" xmlns:xlink="http://www.w3.org/1999/xlink" 
	 viewBox="0 0 485 485" xml:space="preserve">
<g>
	<path d="M90.564,236.876l72.583,27.089l28.094,90.351c1.798,5.784,8.874,7.923,13.569,4.083l40.46-32.981
		c4.24-3.458,10.282-3.628,14.712-0.412l72.975,52.981c5.023,3.65,12.142,0.899,13.401-5.172l53.458-257.136
		c1.375-6.632-5.139-12.164-11.454-9.721L90.48,220.873C83.128,223.706,83.191,234.114,90.564,236.876z M186.713,249.546
		l141.854-87.367c2.548-1.565,5.172,1.882,2.981,3.913L214.479,274.913c-4.116,3.829-6.77,8.957-7.522,14.522l-3.986,29.553
		c-0.531,3.945-6.071,4.335-7.162,0.517l-15.337-53.891C178.717,259.468,181.276,252.901,186.713,249.546z"/>
	<path d="M0,0v485h485V0H0z M455,455H30V30h425V455z"/>
</g>
</svg>