<svg width="62" height="70" viewBox="0 0 62 70" fill="none" xmlns="http://www.w3.org/2000/svg">
<path fill-rule="evenodd" clip-rule="evenodd" d="M33.5 16.5C34.8807 16.5 36 17.6193 36 19V49C36 50.3807 34.8807 51.5 33.5 51.5C32.1193 51.5 31 50.3807 31 49V19C31 17.6193 32.1193 16.5 33.5 16.5Z" fill="white"/>
<path fill-rule="evenodd" clip-rule="evenodd" d="M55 30.5C56.3807 30.5 57.5 31.6193 57.5 33V48.5C57.5 49.8807 56.3807 51 55 51C53.6193 51 52.5 49.8807 52.5 48.5V33C52.5 31.6193 53.6193 30.5 55 30.5Z" fill="white"/>
<path fill-rule="evenodd" clip-rule="evenodd" d="M44 30.5C45.3807 30.5 46.5 31.6193 46.5 33V48.5C46.5 49.8807 45.3807 51 44 51C42.6193 51 41.5 49.8807 41.5 48.5V33C41.5 31.6193 42.6193 30.5 44 30.5Z" fill="white"/>
<path fill-rule="evenodd" clip-rule="evenodd" d="M23 30.5C24.3807 30.5 25.5 31.6193 25.5 33V48.5C25.5 49.8807 24.3807 51 23 51C21.6193 51 20.5 49.8807 20.5 48.5V33C20.5 31.6193 21.6193 30.5 23 30.5Z" fill="white"/>
<path fill-rule="evenodd" clip-rule="evenodd" d="M33.2311 17.3177C33.6079 17.7214 33.5861 18.3542 33.1823 18.7311L3.18232 46.7311C2.77857 47.1079 2.14578 47.0861 1.76895 46.6823C1.39211 46.2786 1.41393 45.6458 1.81769 45.2689L32 17C32.4037 16.6232 32.8542 16.9139 33.2311 17.3177Z" fill="white"/>
<path fill-rule="evenodd" clip-rule="evenodd" d="M54.7424 31.33C55.1124 31.7401 55.08 32.3724 54.67 32.7424L35 51C34.59 51.37 33.1276 51.58 32.7576 51.17C32.3876 50.76 32.42 50.1276 32.83 49.7576L53.5 31C53.91 30.63 54.3724 30.92 54.7424 31.33Z" fill="white"/>
<path fill-rule="evenodd" clip-rule="evenodd" d="M43.7433 31.331C44.1127 31.7415 44.0795 32.3738 43.669 32.7433L24.5 50.5C24.0895 50.8695 22.6262 51.0795 22.2567 50.669C21.8872 50.2585 21.9205 49.6262 22.331 49.2567L42.5 31C42.9105 30.6305 43.3738 30.9205 43.7433 31.331Z" fill="white"/>
<path fill-rule="evenodd" clip-rule="evenodd" d="M22.7071 31.2929C23.0976 31.6834 23.0976 32.3166 22.7071 32.7071L19.7071 35.7071C19.3166 36.0976 18.6834 36.0976 18.2929 35.7071C17.9024 35.3166 17.9024 34.6834 18.2929 34.2929L21 31.5C21.3905 31.1095 22.3166 30.9024 22.7071 31.2929Z" fill="white"/>
<path fill-rule="evenodd" clip-rule="evenodd" d="M60.7809 45.3753C61.1259 45.8066 61.056 46.4359 60.6247 46.7809L56.5 50.5C56.0687 50.845 54.5641 51.056 54.2191 50.6247C53.8741 50.1934 53.944 49.5641 54.3753 49.2191L59.3753 45.2191C59.8066 44.8741 60.4359 44.944 60.7809 45.3753Z" fill="white"/>
<path fill-rule="evenodd" clip-rule="evenodd" d="M49.7809 45.3753C50.1259 45.8066 50.056 46.4359 49.6247 46.7809L45.5 50.5C45.0687 50.845 43.5641 51.056 43.2191 50.6247C42.8741 50.1934 42.944 49.5641 43.3753 49.2191L48.3753 45.2191C48.8066 44.8741 49.4359 44.944 49.7809 45.3753Z" fill="white"/>
<path d="M43.5 16.5C44.6667 18 46.3 21.9 43.5 25.5" stroke="white" stroke-linecap="round"/>
<path d="M48 16.5C49.1667 18 50.8 21.9 48 25.5" stroke="white" stroke-linecap="round"/>
<path d="M52 16.5C53.1667 18 54.8 21.9 52 25.5" stroke="white" stroke-linecap="round"/>
<path d="M0.5 0.5C0.833333 1.5 2.1 3.5 4.5 3.5C6.9 3.5 18.8333 3.5 24.5 3.5C26.5 3.5 29.4 4.1 31 8.5" stroke="#5E80C9" stroke-linecap="round"/>
<path d="M61 0.5C60.6667 1.5 59.4 3.5 57 3.5C54.6 3.5 42.6667 3.5 37 3.5C35 3.5 32.6 4.1 31 8.5" stroke="#5E80C9" stroke-linecap="round"/>
<path d="M4 64C12.8333 55.3333 33.6 43.2 58 64" stroke="#5D7DC4" stroke-linecap="round"/>
<path d="M9.5 66C17 57 33.2 41.6 52 66" stroke="#5D7DC4" stroke-linecap="round"/>
<path d="M20 68C26 51.5 32.9348 44.9858 42.5 68" stroke="#5D7DC4" stroke-linecap="round"/>
<path d="M31 69.5V53" stroke="#5D7DC4" stroke-linecap="round"/>
<path d="M6.5 62C15 66.1667 35.5 72 55.5 62" stroke="#5D7DC4" stroke-linecap="round"/>
<path d="M16 56C20.8333 57.3333 32.7 59.2 45.5 56" stroke="#5D7DC4" stroke-linecap="round"/>
<path d="M11.9312 13.6354L7.7191 8.38507L11.6536 6.91004L11.9312 13.6354Z" fill="#5F83CF"/>
<path d="M10.8414 14.9852L4.11388 14.767L5.55408 10.8197L10.8414 14.9852Z" fill="#5F83CF"/>
<path d="M14.2716 13.6354L18.4836 8.38507L14.5492 6.91004L14.2716 13.6354Z" fill="#5F83CF"/>
<path d="M15.3613 14.9852L22.0889 14.767L20.6486 10.8197L15.3613 14.9852Z" fill="#5F83CF"/>
<path d="M11.9312 17.9646L7.7191 23.2149L11.6536 24.69L11.9312 17.9646Z" fill="#5F83CF"/>
<path d="M10.8414 16.6148L4.11388 16.833L5.55408 20.7803L10.8414 16.6148Z" fill="#5F83CF"/>
<path d="M14.2716 17.9646L18.4836 23.2149L14.5492 24.69L14.2716 17.9646Z" fill="#5F83CF"/>
<path d="M15.3613 16.6148L22.0889 16.833L20.6486 20.7803L15.3613 16.6148Z" fill="#5F83CF"/>
<circle cx="13" cy="16" r="3" fill="#5F83CF"/>
</svg>
